<svg width="32" height="32" viewBox="0 0 32 32" xmlns="http://www.w3.org/2000/svg">
    <!-- Pins de la puce flash -->
    <g stroke="#000" stroke-width="2.5">
        <line x1="2" y1="8"  x2="6.5" y2="8"/>
        <line x1="2" y1="14" x2="6.5" y2="14"/>
        <line x1="2" y1="20" x2="6.5" y2="20"/>
        <line x1="2" y1="26" x2="6.5" y2="26"/>
        <line x1="25.5" y1="8"  x2="30" y2="8"/>
        <line x1="25.5" y1="14" x2="30" y2="14"/>
        <line x1="25.5" y1="20" x2="30" y2="20"/>
        <line x1="25.5" y1="26" x2="30" y2="26"/>
    </g>
    <!-- Boîtier -->
    <rect x="6.5" y="4" width="19" height="24" rx="2.5" fill="none" stroke="#000" stroke-width="2.5"/>
    <!-- Carte des régions : bandes empilées, pleines/creuses en alternance -->
    <rect x="8.5" y="6"    width="15" height="3.2" rx="0.7" fill="#000"/>
    <rect x="8.5" y="10.2" width="15" height="3.2" rx="0.7" fill="none" stroke="#000" stroke-width="1"/>
    <rect x="8.5" y="14.4" width="15" height="3.2" rx="0.7" fill="#000"/>
    <rect x="8.5" y="18.6" width="15" height="3.2" rx="0.7" fill="none" stroke="#000" stroke-width="1"/>
    <rect x="8.5" y="22.8" width="15" height="3.2" rx="0.7" fill="#000"/>
</svg>
