<svg width="32" height="32" viewBox="0 0 32 32" xmlns="http://www.w3.org/2000/svg">
    <defs>
        <linearGradient id="chipGrad" x1="0%" y1="0%" x2="100%" y2="100%">
            <stop offset="0%" style="stop-color:#3b82f6;stop-opacity:1" />
            <stop offset="100%" style="stop-color:#2563eb;stop-opacity:1" />
        </linearGradient>
    </defs>
    <!-- Microchip plus large avec gradient -->
    <rect x="6" y="6" width="20" height="20" fill="url(#chipGrad)" stroke="#1e40af" stroke-width="2" rx="2"/>
    <!-- Pins gauche -->
    <line x1="2" y1="9" x2="6" y2="9" stroke="#64748b" stroke-width="2.5"/>
    <line x1="2" y1="13" x2="6" y2="13" stroke="#64748b" stroke-width="2.5"/>
    <line x1="2" y1="16" x2="6" y2="16" stroke="#64748b" stroke-width="2.5"/>
    <line x1="2" y1="19" x2="6" y2="19" stroke="#64748b" stroke-width="2.5"/>
    <line x1="2" y1="23" x2="6" y2="23" stroke="#64748b" stroke-width="2.5"/>
    <!-- Pins droite -->
    <line x1="26" y1="9" x2="30" y2="9" stroke="#64748b" stroke-width="2.5"/>
    <line x1="26" y1="13" x2="30" y2="13" stroke="#64748b" stroke-width="2.5"/>
    <line x1="26" y1="16" x2="30" y2="16" stroke="#64748b" stroke-width="2.5"/>
    <line x1="26" y1="19" x2="30" y2="19" stroke="#64748b" stroke-width="2.5"/>
    <line x1="26" y1="23" x2="30" y2="23" stroke="#64748b" stroke-width="2.5"/>
    <!-- Flash arrow plus gros en jaune/orange -->
    <path d="M 19 11 L 13 16 L 16 16 L 13 21 L 19 16 L 16 16 Z" fill="#fbbf24" stroke="#f59e0b" stroke-width="0.8"/>
</svg>